<svg style="position:absolute;width:0;height:0" xmlns="http://www.w3.org/2000/svg" overflow="hidden"><defs><symbol id="rss" viewBox="0 0 32 32"><path d="M4.363 23.272c-1.212 0-2.242.424-3.091 1.273S0 26.423 0 27.635s.424 2.242 1.272 3.09 1.879 1.273 3.091 1.273c1.212 0 2.242-.424 3.09-1.273s1.272-1.878 1.272-3.09-.424-2.242-1.272-3.09-1.878-1.273-3.09-1.273zm10.044-5.682c-1.712-1.727-3.674-3.102-5.886-4.124s-4.53-1.633-6.954-1.829h-.113c-.394 0-.72.129-.977.386-.318.272-.477.629-.477 1.068v3.068c0 .379.125.704.375.977s.564.424.943.454c3.469.333 6.435 1.731 8.896 4.193s3.86 5.427 4.193 8.896c.03.379.182.693.455.943.273.251.598.376.977.376h3.068c.439 0 .795-.159 1.068-.477.288-.303.417-.667.387-1.091-.197-2.423-.807-4.742-1.83-6.953s-2.397-4.174-4.125-5.886z"/><path d="M29.269 19.079a31.861 31.861 0 0 0-6.681-9.669c-2.818-2.833-6.041-5.06-9.669-6.681S5.492.199 1.523.002h-.068a1.36 1.36 0 0 0-1 .409 1.342 1.342 0 0 0-.454 1.045v3.249c0 .379.133.708.398.988s.587.428.966.443c3.257.197 6.352.97 9.283 2.318s5.477 3.102 7.635 5.26c2.158 2.159 3.912 4.704 5.26 7.636s2.114 6.026 2.295 9.283c.016.379.163.701.443.966s.618.398 1.012.398h3.249a1.34 1.34 0 0 0 1.045-.455c.303-.303.439-.659.409-1.068a31.537 31.537 0 0 0-2.727-11.397z"/></symbol><symbol id="stumbleupon" viewBox="0 0 32 32"><path d="M27.429 16v4.571c0 1.259-1.026 2.286-2.286 2.286s-2.286-1.026-2.286-2.786v-4.432l-2.43.857-2.142-.857v4.43c0 4.283 3.077 7.36 6.857 7.36s6.857-3.077 6.857-6.857v-4.571h-4.571z"/><path d="M18.286 13.143L20.43 14l2.427-.857v-2.217c0-3.282-3.077-6.354-6.857-6.354s-6.857 3.074-6.857 6.857v9.143c0 1.259-1.026 2.286-2.286 2.286s-2.286-1.026-2.286-2.286v-4.571H-.001v4.571c0 3.781 3.077 6.857 6.857 6.857s6.857-3.077 6.857-6.857v-9.143a2.29 2.29 0 0 1 2.286-2.286c1.257 0 2.286 1.024 2.286 1.783v2.217z"/></symbol><symbol id="instagram" viewBox="0 0 32 32"><path d="M4.107 0h23.785c2.259 0 4.107 1.672 4.107 4.107v23.786c0 2.435-1.848 4.107-4.107 4.107H4.107C1.847 32 0 30.328 0 27.893V4.107C0 1.672 1.848 0 4.107 0zm19.204 3.555c-.792 0-1.44.648-1.44 1.441v3.448c0 .792.648 1.441 1.44 1.441h3.617c.792 0 1.441-.648 1.441-1.441V4.996c0-.793-.648-1.441-1.441-1.441h-3.617zm5.072 9.978h-2.816c.266.87.411 1.792.411 2.745 0 5.323-4.454 9.637-9.947 9.637S6.085 21.6 6.085 16.278c0-.954.144-1.875.411-2.745H3.557V27.05c0 .7.572 1.272 1.272 1.272h22.284c.7 0 1.272-.572 1.272-1.272V13.533h-.001zM16.03 9.703c-3.549 0-6.427 2.788-6.427 6.227s2.878 6.227 6.427 6.227c3.549 0 6.427-2.788 6.427-6.227s-2.878-6.227-6.427-6.227z"/></symbol><symbol id="pinterest" viewBox="0 0 32 32"><path d="M29.856 7.969c-1.431-2.451-3.372-4.392-5.823-5.823S18.905 0 16.002 0c-2.903 0-5.58.715-8.031 2.146S3.579 5.517 2.148 7.969C.717 10.421.002 13.098.002 16c0 3.236.882 6.174 2.646 8.813 1.764 2.64 4.076 4.591 6.938 5.855-.056-1.486.035-2.715.271-3.687l2.063-8.709c-.347-.681-.521-1.527-.521-2.542 0-1.18.298-2.166.896-2.958s1.326-1.188 2.188-1.188c.694 0 1.229.229 1.604.687s.562 1.035.562 1.729c0 .43-.08.955-.24 1.573s-.368 1.333-.625 2.146a26.043 26.043 0 0 0-.552 1.948c-.194.847-.035 1.573.479 2.177s1.195.907 2.042.907c1.486 0 2.705-.826 3.656-2.479s1.427-3.66 1.427-6.021c0-1.82-.587-3.299-1.761-4.438s-2.809-1.709-4.907-1.709c-2.347 0-4.246.754-5.698 2.261s-2.177 3.309-2.177 5.407c0 1.25.354 2.299 1.062 3.146.236.278.313.576.229.896-.028.083-.083.292-.167.625s-.139.549-.166.646c-.111.444-.375.583-.792.417-1.069-.444-1.882-1.215-2.437-2.312s-.833-2.368-.833-3.812c0-.931.149-1.861.448-2.792s.764-1.83 1.396-2.698c.632-.868 1.389-1.636 2.271-2.302s1.955-1.201 3.219-1.604 2.625-.604 4.083-.604c1.973 0 3.743.437 5.312 1.312s2.767 2.007 3.594 3.396a8.569 8.569 0 0 1 1.24 4.459c0 2.083-.361 3.958-1.083 5.625s-1.743 2.976-3.063 3.927c-1.32.952-2.819 1.427-4.5 1.427-.847 0-1.639-.198-2.375-.594s-1.243-.864-1.521-1.406c-.625 2.458-1 3.924-1.125 4.396-.264.986-.805 2.125-1.625 3.416 1.486.444 3 .666 4.542.666 2.903 0 5.58-.715 8.031-2.146s4.392-3.371 5.823-5.822c1.431-2.452 2.146-5.129 2.146-8.032s-.713-5.58-2.144-8.031z"/></symbol><symbol id="google" viewBox="0 0 32 32"><path d="M18.413 20.375c-.34-.455-.715-.879-1.125-1.269s-.821-.747-1.231-1.067c-.41-.32-.785-.628-1.125-.923s-.615-.602-.827-.923-.317-.647-.317-.981c0-.462.148-.894.442-1.298s.654-.795 1.077-1.173c.423-.378.846-.792 1.269-1.24s.782-1.042 1.077-1.779c.295-.737.442-1.58.442-2.529 0-1.128-.25-2.212-.75-3.25S16.14 2.097 15.23 1.52h2.596L20.422.001h-8.403a17.2 17.2 0 0 0-3.596.385c-1.782.397-3.282 1.305-4.5 2.721S2.096 6.129 2.096 7.924c0 1.897.683 3.474 2.048 4.731s3.003 1.884 4.913 1.884c.385 0 .833-.032 1.346-.096-.026.102-.07.24-.134.413l-.154.414c-.038.102-.071.227-.096.375s-.038.298-.038.452c0 .846.41 1.801 1.231 2.865-.974.026-1.936.112-2.884.26s-1.942.378-2.981.692c-1.038.314-1.968.769-2.788 1.365S1.123 22.583.713 23.404C.239 24.353.001 25.218.001 26c0 .859.192 1.638.577 2.337s.878 1.269 1.481 1.711c.603.443 1.298.814 2.087 1.116s1.57.516 2.346.644S8.034 32 8.79 32c3.436 0 6.128-.84 8.077-2.519 1.795-1.564 2.692-3.372 2.692-5.423 0-.731-.106-1.413-.317-2.048s-.487-1.18-.827-1.635zM11 13.385c-.654 0-1.276-.167-1.865-.5s-1.09-.766-1.5-1.298c-.41-.532-.769-1.131-1.077-1.798s-.535-1.333-.683-2a8.844 8.844 0 0 1-.221-1.904c0-1.231.327-2.288.981-3.173s1.577-1.327 2.769-1.327c.846 0 1.612.263 2.298.788s1.224 1.192 1.615 2 .692 1.644.904 2.509.317 1.683.317 2.452c0 1.282-.279 2.311-.836 3.087S12.244 13.384 11 13.384zm5.317 14.441c-.352.603-.83 1.074-1.432 1.413s-1.247.59-1.933.75a9.44 9.44 0 0 1-2.163.241c-.821 0-1.635-.096-2.442-.289s-1.58-.484-2.317-.875c-.737-.391-1.333-.929-1.788-1.615s-.683-1.465-.683-2.337c0-.769.173-1.455.519-2.058s.789-1.083 1.327-1.442c.538-.359 1.167-.654 1.885-.884s1.41-.391 2.077-.481a15.21 15.21 0 0 1 2.038-.134c.423 0 .744.013.962.038a84.78 84.78 0 0 1 1.222.847c.109.077.308.224.596.442s.493.381.615.49c.121.109.298.272.529.49s.401.407.51.567c.109.16.244.356.404.586s.272.452.337.664c.064.212.125.442.182.692s.086.51.086.779c0 .807-.176 1.513-.529 2.115z"/><path d="M27.077 4.923V0h-2.462v4.923h-4.923v2.462h4.923v4.923h2.462V7.385H32V4.923z"/></symbol><symbol id="twitter" viewBox="0 0 32 32"><path d="M32 6.079a13.112 13.112 0 0 1-3.769 1.034 6.588 6.588 0 0 0 2.885-3.629 13.23 13.23 0 0 1-4.171 1.594 6.545 6.545 0 0 0-4.791-2.074 6.565 6.565 0 0 0-6.395 8.059A18.633 18.633 0 0 1 2.23 4.204a6.515 6.515 0 0 0-.888 3.299 6.562 6.562 0 0 0 2.919 5.463 6.56 6.56 0 0 1-2.973-.824v.082a6.572 6.572 0 0 0 5.265 6.437 6.65 6.65 0 0 1-1.73.23c-.424 0-.834-.042-1.236-.122a6.567 6.567 0 0 0 6.131 4.559 13.169 13.169 0 0 1-8.152 2.805c-.53 0-1.052-.032-1.566-.09a18.552 18.552 0 0 0 10.062 2.953c12.076 0 18.677-10.002 18.677-18.677l-.022-.85A13.117 13.117 0 0 0 32 6.078z"/></symbol><symbol id="facebook" viewBox="0 0 32 32"><path d="M23.999.007L19.849 0c-4.662 0-7.675 3.091-7.675 7.875v3.631H8.002a.652.652 0 0 0-.652.653v5.261c0 .361.292.652.652.652h4.172v13.275c0 .361.292.653.652.653h5.444a.651.651 0 0 0 .652-.652V18.073H23.8a.651.651 0 0 0 .652-.652l.002-5.261a.652.652 0 0 0-.653-.652h-4.88V8.43c0-1.479.353-2.23 2.28-2.23l2.795-.001c.36 0 .652-.292.652-.652V.662a.652.652 0 0 0-.651-.652z"/></symbol></defs></svg>