<svg style="position: absolute; width: 0; height: 0; overflow: hidden;" version="1.1" xmlns="http://www.w3.org/2000/svg" xmlns:xlink="http://www.w3.org/1999/xlink">
<defs>
<symbol id="rss" viewBox="0 0 32 32">
<title>rss-symbol</title>
<path d="M4.363 23.272c-1.212 0-2.242 0.424-3.091 1.273s-1.272 1.878-1.272 3.090c0 1.212 0.424 2.242 1.272 3.090s1.879 1.273 3.091 1.273c1.212 0 2.242-0.424 3.090-1.273s1.272-1.878 1.272-3.090c0-1.212-0.424-2.242-1.272-3.090s-1.878-1.273-3.090-1.273z"></path>
<path d="M14.407 17.59c-1.712-1.727-3.674-3.102-5.886-4.124s-4.53-1.633-6.954-1.829h-0.113c-0.394 0-0.72 0.129-0.977 0.386-0.318 0.272-0.477 0.629-0.477 1.068v3.068c0 0.379 0.125 0.704 0.375 0.977s0.564 0.424 0.943 0.454c3.469 0.333 6.435 1.731 8.896 4.193s3.86 5.427 4.193 8.896c0.030 0.379 0.182 0.693 0.455 0.943 0.273 0.251 0.598 0.376 0.977 0.376h3.068c0.439 0 0.795-0.159 1.068-0.477 0.288-0.303 0.417-0.667 0.387-1.091-0.197-2.423-0.807-4.742-1.83-6.953s-2.397-4.174-4.125-5.886z"></path>
<path d="M29.269 19.079c-1.621-3.628-3.848-6.851-6.681-9.669-2.818-2.833-6.041-5.060-9.669-6.681s-7.427-2.53-11.396-2.727h-0.068c-0.394 0-0.727 0.136-1 0.409-0.303 0.272-0.454 0.621-0.454 1.045v3.249c0 0.379 0.133 0.708 0.398 0.988s0.587 0.428 0.966 0.443c3.257 0.197 6.352 0.97 9.283 2.318s5.477 3.102 7.635 5.26c2.158 2.159 3.912 4.704 5.26 7.636s2.114 6.026 2.295 9.283c0.016 0.379 0.163 0.701 0.443 0.966s0.618 0.398 1.012 0.398h3.249c0.424 0 0.772-0.151 1.045-0.455 0.303-0.303 0.439-0.659 0.409-1.068-0.197-3.97-1.106-7.768-2.727-11.397z"></path>
</symbol>
<symbol id="stumbleupon" viewBox="0 0 32 32">
<title>stumbleupon-logo</title>
<path d="M27.429 16v4.571c0 1.259-1.026 2.286-2.286 2.286s-2.286-1.026-2.286-2.786v-4.432l-2.43 0.857-2.142-0.857v4.43c0 4.283 3.077 7.36 6.857 7.36s6.857-3.077 6.857-6.857v-4.571h-4.571z"></path>
<path d="M18.286 13.143l2.144 0.857 2.427-0.857v-2.217c0-3.282-3.077-6.354-6.857-6.354s-6.857 3.074-6.857 6.857v9.143c0 1.259-1.026 2.286-2.286 2.286s-2.286-1.026-2.286-2.286v-4.571h-4.572v4.571c0 3.781 3.077 6.857 6.857 6.857s6.857-3.077 6.857-6.857v-9.143c0-1.259 1.026-2.286 2.286-2.286 1.257 0 2.286 1.024 2.286 1.783v2.217z"></path>
</symbol>
<symbol id="instagram" viewBox="0 0 32 32">
<title>instagram-social-network-logo-of-photo-camera</title>
<path d="M4.107 0h23.785c2.259 0 4.107 1.672 4.107 4.107v23.786c0 2.435-1.848 4.107-4.107 4.107h-23.785c-2.26 0-4.107-1.672-4.107-4.107v-23.786c0-2.435 1.848-4.107 4.107-4.107v0zM23.311 3.555c-0.792 0-1.44 0.648-1.44 1.441v3.448c0 0.792 0.648 1.441 1.44 1.441h3.617c0.792 0 1.441-0.648 1.441-1.441v-3.448c0-0.793-0.648-1.441-1.441-1.441h-3.617zM28.383 13.533h-2.816c0.266 0.87 0.411 1.792 0.411 2.745 0 5.323-4.454 9.637-9.947 9.637s-9.946-4.315-9.946-9.637c0-0.954 0.144-1.875 0.411-2.745h-2.939v13.517c0 0.7 0.572 1.272 1.272 1.272h22.284c0.7 0 1.272-0.572 1.272-1.272v-13.517h-0.001zM16.030 9.703c-3.549 0-6.427 2.788-6.427 6.227s2.878 6.227 6.427 6.227c3.549 0 6.427-2.788 6.427-6.227s-2.878-6.227-6.427-6.227z"></path>
</symbol>
<symbol id="pinterest" viewBox="0 0 32 32">
<title>pinterest-logo</title>
<path d="M29.856 7.969c-1.431-2.451-3.372-4.392-5.823-5.823s-5.128-2.146-8.031-2.146c-2.903 0-5.58 0.715-8.031 2.146s-4.392 3.371-5.823 5.823c-1.431 2.452-2.146 5.129-2.146 8.031 0 3.236 0.882 6.174 2.646 8.813 1.764 2.64 4.076 4.591 6.938 5.855-0.056-1.486 0.035-2.715 0.271-3.687l2.063-8.709c-0.347-0.681-0.521-1.527-0.521-2.542 0-1.18 0.298-2.166 0.896-2.958s1.326-1.188 2.188-1.188c0.694 0 1.229 0.229 1.604 0.687s0.562 1.035 0.562 1.729c0 0.43-0.080 0.955-0.24 1.573s-0.368 1.333-0.625 2.146c-0.257 0.812-0.441 1.462-0.552 1.948-0.194 0.847-0.035 1.573 0.479 2.177s1.195 0.907 2.042 0.907c1.486 0 2.705-0.826 3.656-2.479s1.427-3.66 1.427-6.021c0-1.82-0.587-3.299-1.761-4.438s-2.809-1.709-4.907-1.709c-2.347 0-4.246 0.754-5.698 2.261s-2.177 3.309-2.177 5.407c0 1.25 0.354 2.299 1.062 3.146 0.236 0.278 0.313 0.576 0.229 0.896-0.028 0.083-0.083 0.292-0.167 0.625s-0.139 0.549-0.166 0.646c-0.111 0.444-0.375 0.583-0.792 0.417-1.069-0.444-1.882-1.215-2.437-2.312s-0.833-2.368-0.833-3.812c0-0.931 0.149-1.861 0.448-2.792s0.764-1.83 1.396-2.698c0.632-0.868 1.389-1.636 2.271-2.302s1.955-1.201 3.219-1.604 2.625-0.604 4.083-0.604c1.973 0 3.743 0.437 5.312 1.312s2.767 2.007 3.594 3.396c0.827 1.389 1.24 2.875 1.24 4.459 0 2.083-0.361 3.958-1.083 5.625s-1.743 2.976-3.063 3.927c-1.32 0.952-2.819 1.427-4.5 1.427-0.847 0-1.639-0.198-2.375-0.594s-1.243-0.864-1.521-1.406c-0.625 2.458-1 3.924-1.125 4.396-0.264 0.986-0.805 2.125-1.625 3.416 1.486 0.444 3 0.666 4.542 0.666 2.903 0 5.58-0.715 8.031-2.146s4.392-3.371 5.823-5.822c1.431-2.452 2.146-5.129 2.146-8.032s-0.713-5.58-2.144-8.031z"></path>
</symbol>
<symbol id="google" viewBox="0 0 32 32">
<title>google-plus-symbol</title>
<path d="M18.413 20.375c-0.34-0.455-0.715-0.879-1.125-1.269s-0.821-0.747-1.231-1.067c-0.41-0.32-0.785-0.628-1.125-0.923s-0.615-0.602-0.827-0.923-0.317-0.647-0.317-0.981c0-0.462 0.148-0.894 0.442-1.298s0.654-0.795 1.077-1.173c0.423-0.378 0.846-0.792 1.269-1.24s0.782-1.042 1.077-1.779c0.295-0.737 0.442-1.58 0.442-2.529 0-1.128-0.25-2.212-0.75-3.25s-1.205-1.846-2.115-2.423h2.596l2.596-1.519h-8.403c-1.192 0-2.391 0.128-3.596 0.385-1.782 0.397-3.282 1.305-4.5 2.721s-1.827 3.022-1.827 4.817c0 1.897 0.683 3.474 2.048 4.731s3.003 1.884 4.913 1.884c0.385 0 0.833-0.032 1.346-0.096-0.026 0.102-0.070 0.24-0.134 0.413s-0.116 0.311-0.154 0.414c-0.038 0.102-0.071 0.227-0.096 0.375s-0.038 0.298-0.038 0.452c0 0.846 0.41 1.801 1.231 2.865-0.974 0.026-1.936 0.112-2.884 0.26s-1.942 0.378-2.981 0.692c-1.038 0.314-1.968 0.769-2.788 1.365s-1.436 1.304-1.846 2.125c-0.474 0.949-0.712 1.814-0.712 2.596 0 0.859 0.192 1.638 0.577 2.337s0.878 1.269 1.481 1.711c0.603 0.443 1.298 0.814 2.087 1.116s1.57 0.516 2.346 0.644c0.776 0.128 1.542 0.192 2.298 0.192 3.436 0 6.128-0.84 8.077-2.519 1.795-1.564 2.692-3.372 2.692-5.423 0-0.731-0.106-1.413-0.317-2.048s-0.487-1.18-0.827-1.635zM11 13.385c-0.654 0-1.276-0.167-1.865-0.5s-1.090-0.766-1.5-1.298c-0.41-0.532-0.769-1.131-1.077-1.798s-0.535-1.333-0.683-2c-0.147-0.666-0.221-1.301-0.221-1.904 0-1.231 0.327-2.288 0.981-3.173s1.577-1.327 2.769-1.327c0.846 0 1.612 0.263 2.298 0.788s1.224 1.192 1.615 2c0.391 0.808 0.692 1.644 0.904 2.509s0.317 1.683 0.317 2.452c0 1.282-0.279 2.311-0.836 3.087s-1.458 1.163-2.702 1.163zM16.317 27.826c-0.352 0.603-0.83 1.074-1.432 1.413s-1.247 0.59-1.933 0.75c-0.686 0.161-1.407 0.241-2.163 0.241-0.821 0-1.635-0.096-2.442-0.289s-1.58-0.484-2.317-0.875c-0.737-0.391-1.333-0.929-1.788-1.615s-0.683-1.465-0.683-2.337c0-0.769 0.173-1.455 0.519-2.058s0.789-1.083 1.327-1.442c0.538-0.359 1.167-0.654 1.885-0.884s1.41-0.391 2.077-0.481c0.666-0.090 1.346-0.134 2.038-0.134 0.423 0 0.744 0.013 0.962 0.038 0.077 0.052 0.272 0.186 0.587 0.404s0.526 0.366 0.635 0.443c0.109 0.077 0.308 0.224 0.596 0.442s0.493 0.381 0.615 0.49c0.121 0.109 0.298 0.272 0.529 0.49s0.401 0.407 0.51 0.567c0.109 0.16 0.244 0.356 0.404 0.586s0.272 0.452 0.337 0.664c0.064 0.212 0.125 0.442 0.182 0.692s0.086 0.51 0.086 0.779c0 0.807-0.176 1.513-0.529 2.115z"></path>
<path d="M27.077 4.923v-4.923h-2.462v4.923h-4.923v2.462h4.923v4.923h2.462v-4.923h4.923v-2.462z"></path>
</symbol>
<symbol id="twitter" viewBox="0 0 32 32">
<title>twitter-logo-silhouette</title>
<path d="M32 6.079c-1.178 0.522-2.442 0.876-3.769 1.034 1.356-0.812 2.394-2.1 2.885-3.629-1.272 0.752-2.675 1.298-4.171 1.594-1.198-1.278-2.901-2.074-4.791-2.074-3.625 0-6.565 2.939-6.565 6.563 0 0.514 0.058 1.016 0.17 1.496-5.455-0.274-10.292-2.887-13.529-6.859-0.566 0.968-0.888 2.096-0.888 3.299 0 2.278 1.16 4.287 2.919 5.463-1.076-0.036-2.088-0.332-2.973-0.824v0.082c0 3.179 2.264 5.833 5.265 6.437-0.55 0.148-1.13 0.23-1.73 0.23-0.424 0-0.834-0.042-1.236-0.122 0.836 2.61 3.259 4.507 6.131 4.559-2.246 1.76-5.077 2.805-8.152 2.805-0.53 0-1.052-0.032-1.566-0.090 2.905 1.866 6.355 2.953 10.062 2.953 12.076 0 18.677-10.002 18.677-18.677l-0.022-0.85c1.29-0.92 2.405-2.076 3.283-3.391z"></path>
</symbol>
<symbol id="facebook" viewBox="0 0 32 32">
<title>facebook-logo</title>
<path d="M23.999 0.007l-4.15-0.007c-4.662 0-7.675 3.091-7.675 7.875v3.631h-4.172c-0.361 0-0.652 0.292-0.652 0.653v5.261c0 0.361 0.292 0.652 0.652 0.652h4.172v13.275c0 0.361 0.292 0.653 0.652 0.653h5.444c0.361 0 0.652-0.292 0.652-0.652v-13.275h4.878c0.361 0 0.652-0.292 0.652-0.652l0.002-5.261c0-0.173-0.069-0.339-0.191-0.461s-0.289-0.191-0.462-0.191h-4.88v-3.078c0-1.479 0.353-2.23 2.28-2.23l2.795-0.001c0.36 0 0.652-0.292 0.652-0.652v-4.885c0-0.36-0.292-0.652-0.651-0.652z"></path>
</symbol>
</defs>
</svg>
